<?xml version="1.0" standalone="no"?>
<!DOCTYPE svg PUBLIC "-//W3C//DTD SVG 20010904//EN"
 "http://www.w3.org/TR/2001/REC-SVG-20010904/DTD/svg10.dtd">
<svg version="1.0" xmlns="http://www.w3.org/2000/svg"
 width="125.000000pt" height="125.000000pt" viewBox="0 0 125.000000 125.000000"
 preserveAspectRatio="xMidYMid meet">
<metadata>
Created by potrace 1.11, written by Peter Selinger 2001-2013
</metadata>
<g transform="translate(0.000000,125.000000) scale(0.100000,-0.100000)"
fill="#000000" stroke="none">
<path d="M586 1079 c-32 -26 -37 -52 -16 -94 15 -29 15 -36 4 -46 -8 -6 -14
-15 -14 -19 0 -8 -146 -250 -159 -263 -6 -6 -41 10 -95 42 -75 46 -86 56 -86
80 0 74 -113 87 -140 16 -12 -32 9 -76 44 -90 30 -13 33 -20 80 -189 l48 -176
378 0 378 0 32 118 c61 227 64 233 97 247 43 18 57 63 32 104 -36 60 -125 37
-133 -35 -3 -24 -16 -36 -82 -76 -43 -26 -82 -47 -86 -48 -7 0 -67 88 -81 120
-4 8 -31 54 -61 101 -54 86 -54 87 -36 113 44 68 -40 146 -104 95z"/>
<path d="M243 248 c-43 -21 -37 -90 10 -107 12 -4 187 -8 389 -7 313 1 369 3
382 16 26 27 28 55 5 83 l-20 27 -372 -1 c-238 0 -380 -4 -394 -11z"/>
</g>
</svg>
