<svg xmlns="http://www.w3.org/2000/svg" width="215.703" height="75.361" viewBox="0 0 57.071 19.939"><g fill="#092e20" overflow="visible"><path d="M6.729 0h3.12v14.447c-1.6.304-2.776.425-4.053.425C1.986 14.872 0 13.15 0 9.846c0-3.182 2.108-5.249 5.37-5.249.507 0 .892.04 1.359.162zm0 7.272a3.1 3.1 0 0 0-1.054-.162c-1.58 0-2.493.973-2.493 2.675 0 1.662.872 2.574 2.473 2.574.344 0 .628-.02 1.074-.08z"/><path d="M14.815 4.82v7.235c0 2.493-.182 3.689-.73 4.722-.506.994-1.175 1.622-2.553 2.311L8.634 17.71c1.378-.649 2.047-1.216 2.472-2.088.446-.891.588-1.925.588-4.64V4.82zM11.695.017h3.12v3.202h-3.12zM16.7 5.53a9.39 9.39 0 0 1 4.135-.933c1.601 0 2.655.426 3.121 1.257.263.466.344 1.074.344 2.371v6.343c-1.398.203-3.161.345-4.458.345-2.615 0-3.79-.912-3.79-2.939 0-2.189 1.56-3.202 5.39-3.526v-.69c0-.567-.283-.77-1.073-.77-1.155 0-2.453.325-3.669.953V5.53zm4.885 4.965c-2.068.202-2.736.527-2.736 1.337 0 .608.385.892 1.236.892.466 0 .892-.04 1.5-.142zM25.82 5.306c1.845-.486 3.365-.709 4.905-.709 1.601 0 2.757.365 3.446 1.074.648.669.85 1.398.85 2.96v6.12h-3.12v-6c0-1.195-.406-1.64-1.52-1.64-.426 0-.81.04-1.44.222v7.418h-3.12zM36.235 16.453a7.105 7.105 0 0 0 3.344.831c2.047 0 2.919-.83 2.919-2.817v-.06c-.608.303-1.216.425-2.027.425-2.736 0-4.48-1.804-4.48-4.662 0-3.547 2.575-5.553 7.135-5.553 1.338 0 2.574.142 4.074.446L46.13 7.314c-.831-.162-.067-.021-.695-.082v.324l.04 1.317.021 1.703c.02.425.02.851.04 1.277v.85c0 2.676-.222 3.933-.891 4.966-.973 1.52-2.655 2.27-5.047 2.27-1.216 0-2.27-.182-3.364-.608v-2.878zm6.202-9.323h-.324c-.608-.02-1.317.142-1.804.446-.75.426-1.135 1.196-1.135 2.29 0 1.561.77 2.453 2.148 2.453.426 0 .77-.081 1.176-.203v-1.074c0-.365-.02-.77-.02-1.196l-.02-1.439-.02-1.033V7.13zM52.045 4.557c3.121 0 5.026 1.966 5.026 5.147 0 3.264-1.986 5.31-5.148 5.31-3.12 0-5.046-1.966-5.046-5.127 0-3.284 1.986-5.33 5.168-5.33zm-.061 7.944c1.196 0 1.905-.993 1.905-2.716 0-1.702-.689-2.715-1.884-2.715-1.237 0-1.946.993-1.946 2.715 0 1.723.71 2.716 1.925 2.716z"/></g></svg>